<svg aria-hidden="true" style="position: absolute; width: 0; height: 0; overflow: hidden;" version="1.1" xmlns="http://www.w3.org/2000/svg" xmlns:xlink="http://www.w3.org/1999/xlink">
	<defs>
		<symbol id="johnny_automatic_windsurfing" viewBox="0 0 27 32">
			<path fill="#fff" style="fill: var(--color1, #fff)" d="M16.711 18.87c0.122-0.111 0.202-0.258 0.243-0.419-0.303 0.005-0.56 0.177-0.856 0.214 0.004 0.012 0.009 0.023 0.015 0.034 0.003 0.005 0.006 0.010 0.008 0.015s0.006 0.010 0.009 0.014c0.005 0.007 0.009 0.013 0.014 0.019 0.001 0.002 0.003 0.003 0.004 0.005 0.012 0.014 0.026 0.026 0.040 0.037 0.010 0.008 0.021 0.015 0.032 0.021 0.004 0.002 0.007 0.005 0.011 0.007 0.089 0.050 0.202 0.069 0.294 0.090 0.070 0.015 0.132-0.001 0.185-0.036z">
			</path>
			<path fill="#fff" style="fill: var(--color1, #fff)" d="M15.663 18.988c-0.018-0.007-0.036-0.013-0.054-0.019-0.011-0.004-0.023-0.007-0.034-0.011-0.037-0.012-0.075-0.023-0.112-0.034-0.010-0.003-0.021-0.006-0.031-0.009-0.045-0.013-0.091-0.025-0.137-0.036-0.037 0.058-0.091 0.076-0.16 0.053 0 0.018 0.001 0.035 0.002 0.052 0.006 0.076 0.022 0.146 0.048 0.208 0.135 0.304 0.518 0.253 0.856 0.15 0.165-0.060 0.101-0.099-0.050-0.196-0.087-0.056-0.18-0.101-0.276-0.139-0.018-0.007-0.035-0.013-0.052-0.020z">
			</path>
			<path fill="#fff" style="fill: var(--color1, #fff)" d="M16.498 19.982c0.006-0.009 0.013-0.018 0.017-0.028 0.188-0.42-0.131-0.298-0.394-0.214-0.043 0.015-0.086 0.028-0.13 0.038-0.019 0.005-0.037 0.008-0.053 0.010 0.012 0.078 0.071 0.144 0.148 0.191 0.081 0.039 0.18 0.054 0.266 0.064 0.055 0.006 0.106-0.019 0.147-0.061z">
			</path>
			<path fill="#010101" style="fill: var(--color2, #010101)" d="M11.338 21.713c0.017 0.112-0.057 0.144-0.143 0.177-0.116 0.044-0.071 0.145-0.071 0.25 0.128 0.020 0.055 0.234 0.214 0.214-0.054-0.22 0.319-0.539 0-0.642z">
			</path>
			<path fill="#010101" style="fill: var(--color2, #010101)" d="M14.601 22.080c0.053-0.249-0.142-0.010-0.193 0.008-0.16 0.057-0.185-0.184-0.343-0.161-0.212 0.279 0.456 0.526 0.536 0.152z">
			</path>
			<path fill="#010101" style="fill: var(--color2, #010101)" d="M14.387 22.409c-0.065 0.106-0.091 0.241-0.187 0.326-0.127 0.113-0.206-0.068-0.348-0.059 0.012 0.236 0.163 0.475 0.393 0.286 0.136-0.111 0.045-0.18 0.201-0.267 0.095-0.053 0.142-0.153 0.208-0.233-0.109 0.018-0.152-0.088-0.267-0.054z">
			</path>
			<path fill="#010101" style="fill: var(--color2, #010101)" d="M14.921 22.409c-0.262 0.251 0.316 0.452 0.374 0.107-0.165 0.041-0.209-0.148-0.374-0.107z">
			</path>
			<path fill="#010101" style="fill: var(--color2, #010101)" d="M8.873 22.949c-0.246 0.015-0.092 0.115-0.102 0.261 0.139-0.043 0.295 0.001 0.428-0.053 0.004-0.164-0.197-0.216-0.326-0.208z">
			</path>
			<path fill="#010101" style="fill: var(--color2, #010101)" d="M14.6 23.104c-0.060 0.001-0.113-0.017-0.16-0.053-0.105 0.037 0.018 0.252-0.107 0.267-0.076-0.011-0.318-0.014-0.268 0.129 0.118 0.334 0.356 0.012 0.535 0.192 0.095-0.182-0.125-0.337 0-0.535z">
			</path>
			<path fill="#010101" style="fill: var(--color2, #010101)" d="M8.281 24.522c-0.092 0.063-0.225-0.062-0.313-0.081-0.040 0.169 0.167 0.191 0.107 0.374 0.064 0.021 0.475-0.221 0.481-0.267-0.188-0.001-0.062-0.173-0.276-0.026z">
			</path>
			<path fill="#010101" style="fill: var(--color2, #010101)" d="M19.735 25.832c-0.198-0.013-0.221 0.241-0.428 0.107 0.033 0.167-0.049 0.26-0.214 0.267 0.042-0.235-0.163-0.226-0.321-0.16-0.014-0.181 0.049-0.341 0.214-0.428-0.064 0.158-0.048 0.295 0.16 0.267-0.102-0.101 0.487-0.565 0.053-0.588-0.053 0.386-0.362 0.094-0.521 0.228-0.1 0.084-0.031 0.293 0.040 0.414-0.113 0.059-0.181 0.13-0.16 0.267 0.19 0.025 0.287-0.205 0.267 0.107 0.173-0.022 0.61 0.409 0.637 0.155 0.009-0.084-0.030-0.283 0.085-0.316 0.194-0.055 0.066 0.19 0.080 0.267 0.331-0.085 0.060-0.391 0.107-0.588z">
			</path>
			<path fill="#010101" style="fill: var(--color2, #010101)" d="M11.163 25.849c-0.037 0.1-0.169 0.020-0.175-0.056-0.010-0.13-0-0.202-0.15-0.236-0.159-0.037-0.023-0.125-0.035-0.206h-0.267c-0.036 0.112 0.016 0.139 0.102 0.184 0.142 0.073-0.036 0.112-0.040 0.204-0.013 0.27 0.276 0.271 0.144 0.566-0.161 0.361 0.291 0.344 0.341 0.026 0.034-0.218 0.003-0.179 0.129-0.347 0.067-0.089 0.081-0.204 0.073-0.312-0.201-0.017-0.082 0.072-0.121 0.178z">
			</path>
			<path fill="#010101" style="fill: var(--color2, #010101)" d="M16.315 26.449c0.155-0.041 0.104-0.101 0.104-0.243-0.165-0.121-0.474-0.022-0.428 0.214 0.085 0.085 0.224 0.056 0.324 0.029z">
			</path>
			<path fill="#010101" style="fill: var(--color2, #010101)" d="M17.008 26.526c0.153 0.211 0.364 0.209 0.321-0.107-0.105-0.106-0.458-0.082-0.32 0.106z">
			</path>
			<path fill="#010101" style="fill: var(--color2, #010101)" d="M15.154 27.067c-0.062 0.248 0.295 0.13 0.409 0.048-0.162 0.033-0.195-0.085-0.214-0.214 0.234-0.002 0.321 0.178 0.321-0.16-0.251-0.027-0.452 0.073-0.516 0.326z">
			</path>
			<path fill="#010101" style="fill: var(--color2, #010101)" d="M16.312 26.741c-0.006 0.080-0.027 0.175-0.107 0.214-0.096-0.144-0.184-0.244-0.374-0.214-0.089 0.082-0.018 0.239-0.107 0.321 0.141-0.007 0.305 0.124 0.428 0-0.003 0.081 0.032 0.134 0.107 0.16 0.059-0.168 0.35-0.371 0.053-0.481z">
			</path>
			<path fill="#010101" style="fill: var(--color2, #010101)" d="M18.344 27.169c0.238 0.024 0.398-0.030 0.374-0.267-0.199-0.104-0.375 0.023-0.374 0.267z">
			</path>
			<path fill="#010101" style="fill: var(--color2, #010101)" d="M22.034 27.489c0.275 0.043 0.327-0.136 0.321-0.374-0.227 0.005-0.337 0.126-0.321 0.374z">
			</path>
			<path fill="#010101" style="fill: var(--color2, #010101)" d="M20.697 27.169c-0.031 0.129-0.218 0.44 0.053 0.428 0.163-0.109 0.245-0.488-0.053-0.428z">
			</path>
			<path fill="#010101" style="fill: var(--color2, #010101)" d="M21.607 27.436c-0.311 0.173-0.222 0.639 0.16 0.535 0.416-0.113 0.049-0.585-0.16-0.535z">
			</path>
			<path fill="#fff" style="fill: var(--color1, #fff)" d="M22.088 28.506c-0.084-0.097-0.214-0.212-0.356-0.186-0.077 0.019-0.137 0.064-0.179 0.132h-0.267c-0.020 0.083 0.020 0.105 0.075 0.15 0.184 0.149-0.177 0.118-0.235 0.118 0.005 0.097-0.032 0.179-0.119 0.224-0.16 0.083-0.474 0.171-0.415-0.117-0.276 0.015-0.779-0.039-0.749 0.374 0.269-0.038 0.46-0.493 0.662-0.067 0.148 0.313 0.228 0.463 0.612 0.352 0.071-0.020 0.142-0.029 0.207-0.046 0.095-0.066 0.189-0.133 0.283-0.201l0.856-0.787c-0.138-0.021-0.233 0.086-0.374 0.053z">
			</path>
			<path fill="#fff" style="fill: var(--color1, #fff)" d="M18.986 18.825c-0.093 0.023-0.323 0.085-0.321 0.214 0.222-0.072 0.592-0.005 0.749-0.214-0.065-0.010-0.248-0.023-0.417-0.002-0.003 0.001-0.007 0.001-0.011 0.002z">
			</path>
			<path fill="#010101" style="fill: var(--color2, #010101)" d="M21.489 9.021c0.043-0.11 0.078-0.201 0.096-0.249 0.106-0.282 0.208-0.567 0.36-0.828 0.137-0.237 0.182-0.491 0.303-0.724 0.259-0.498 0.581-0.994 0.856-1.497 0.121-0.221 0.232-0.444 0.355-0.664 0.065-0.116 0.127-0.235 0.184-0.356 0.057-0.119 0.107-0.076 0.155-0.157 0.127-0.213 0.269-0.465 0.375-0.693 0.084-0.181 0.315-0.378 0.347-0.567 0.015-0.088 0.193-0.362 0.267-0.397 0.135-0.065 0.264-0.351 0.348-0.482 0.32-0.494 0.639-1.041 1.019-1.489 0.125-0.148 0.809-0.917 0.318-0.917-0.175 0.14-0.313 0.307-0.441 0.481-0.196 0.267-0.367 0.55-0.606 0.785-0.147 0.144-0.261 0.324-0.409 0.461-0.179 0.165-0.225 0.383-0.389 0.555s-0.34 0.339-0.51 0.507c-0.061 0.061-0.158 0.046-0.212 0.1-0.049 0.049-0.047 0.116-0.106 0.164-0.43 0.359-0.795 0.84-1.191 1.239-0.276 0.278-0.554 0.553-0.834 0.826-0.153 0.15-0.306 0.3-0.46 0.449-0.075 0.072-0.134 0.171-0.195 0.264-0.062 0.097-0.126 0.188-0.208 0.242-0.014 0.009-0.026 0.018-0.038 0.026-0.12 0.087-0.164 0.166-0.238 0.26-0.027 0.035-0.059 0.072-0.101 0.112-0.010 0.009-0.019 0.019-0.029 0.029-0.208 0.206-0.399 0.424-0.589 0.642-0.164 0.188-0.33 0.375-0.507 0.553-0.013 0.013-0.025 0.026-0.038 0.039-0.030 0.030-0.057 0.060-0.083 0.091-1.499-0.631-3.144-0.981-4.869-0.981-6.936 0-12.579 5.643-12.579 12.579 0 2.485 0.725 4.804 1.973 6.757-0.143-0.015-0.277-0.038-0.309-0.043-0.317-0.047-0.675-0.166-0.996-0.147-0.258 0.016-0.468-0.118-0.731-0.142-0.302-0.027-0.612-0.026-0.908-0.098-0.283-0.068-0.581-0.192-0.871-0.076 0.047 0.521 0.55 0.72 0.963 0.909 0.591 0.271 1.209 0.482 1.833 0.663 0.548 0.159 1.084 0.239 1.623 0.391 0.184 0.052 0.391 0.084 0.594 0.127 2.306 2.599 5.669 4.24 9.408 4.24 6.936 0 12.579-5.643 12.579-12.579 0.001-4.318-2.186-8.133-5.51-10.4zM19.414 18.825c-0.157 0.209-0.527 0.142-0.749 0.214-0.002-0.129 0.228-0.191 0.321-0.214 0.004-0.001 0.007-0.001 0.011-0.002 0.169-0.021 0.352-0.008 0.417 0.002zM2.249 19.421c0-6.711 5.46-12.172 12.172-12.172 1.628 0 3.182 0.322 4.602 0.904-0.035 0.036-0.072 0.066-0.113 0.087-0.010 0.005-0.021 0.010-0.032 0.014 0.010 0.018-0.306 0.338-0.306 0.355-0.001 0.087-0.117 0.154-0.16 0.229-0.112 0.197-0.244 0.372-0.496 0.361 0.077 0.108-0.146 0.486-0.243 0.567s-0.213 0.137-0.292 0.235c-0.063 0.078-0.046 0.189-0.107 0.267-0.349 0.451-0.72 0.863-1.061 1.324-0.398 0.538-0.775 1.089-1.147 1.645-0.073 0.11-0.18 0.188-0.252 0.294-0.055 0.081-0.055 0.185-0.107 0.267-0.122 0.192-0.248 0.393-0.374 0.588-0.109 0.168-0.288 0.295-0.379 0.477-0.13 0.261-0.281 0.499-0.424 0.753-0.17 0.303-0.392 0.853-0.801 0.823-0.181-0.013-0.39-0.11-0.568-0.038-0.188 0.076-0.172 0.32-0.051 0.447 0.145 0.152 0.244 0.197 0.088 0.402-0.126 0.167-0.313 0.27-0.463 0.412-0.134 0.127-0.121 0.254-0.318 0.254-0.089 0-0.176-0.027-0.19 0.081-0.023 0.179-0.043 0.206-0.132 0.336-0.042 0.061-0.123 0.027-0.181 0.035-0.097 0.014-0.095 0.181-0.135 0.254-0.119 0.217-0.325 0.369-0.511 0.524-0.353 0.294-0.662 0.742-0.967 1.108-0.135 0.162-0.282 0.349-0.423 0.497-0.152 0.159-0.256 0.435-0.456 0.534-0.141 0.070-0.053 0.162-0.132 0.268-0.089 0.119-0.184 0.233-0.282 0.344-0.205 0.232-0.422 0.453-0.636 0.677-0.351 0.368-0.755 0.778-1.020 1.211-0.136 0.223-0.367 0.424-0.471 0.656-0.113 0.253-0.238 0.438-0.448 0.621-0.195 0.17-0.402 0.328-0.491 0.579-0.057 0.16-0.304 0.398-0.235 0.566l-0.414-0.043c-1.29-1.931-2.042-4.249-2.042-6.74zM15.456 23.211c-0.1 0.007-0.337-0.14-0.239 0.108 0.051 0.13-0.208 0.255-0.296 0.388-0.139 0.21-0.226 0.203-0.428 0.306-0.198 0.101-0.4 0.198-0.566 0.34-0.136 0.117-0.283 0.284-0.448 0.352-0.194 0.080-0.406 0.113-0.59 0.217-0.129 0.072-0.2 0.248-0.374 0.214 0.061 0.379-0.477 0.767-0.695 1.016-0.060 0.068-0.003 0.152-0.108 0.187-0.048 0.012-0.077 0.043-0.088 0.093-0.077 0.189-0.197 0.184-0.339 0.308-0.183 0.16-0.205 0.25-0.489 0.232-0.179-0.011-0.339-0.083-0.508-0.134-0.197-0.058-0.346 0.018-0.411-0.21-0.039-0.135 0.051-0.197 0.178-0.21-0.157 0.151 0.149 0.37 0.148 0.166-0.001-0.15-0.048-0.179 0.106-0.233 0.158-0.056 0.35-0.53 0.067-0.521 0.079-0.217 0.229-0.678 0.070-0.88-0.177-0.224-0.128 0.16-0.117 0.212 0.040 0.193-0.34 0.155-0.442 0.129-0.143-0.037-0.592-0.11-0.624-0.246-0.059-0.242-0.394-0.113-0.257 0.034 0.1 0.107 0.133 0.106 0.201 0.235 0.072 0.137-0.065 0.305-0.115 0.462-0.075-0.056-0.111-0.145-0.214-0.16-0.142 0.086-0.247 0.204-0.267 0.374-0.122-0.005-0.284-0.254-0.385-0.129-0.079 0.098-0.149 0.089-0.274 0.053-0.049-0.014-0.419-0.234-0.342-0.046 0.027 0.068 0.056 0.198-0.060 0.216-0.051 0.008-0.33-0.112-0.208 0.099 0.041 0.070 0.159-0.029 0.216-0.016-0.004-0.001 0.35 0.475 0.359 0.518 0.181-0.025 0.095-0.226 0.302-0.184 0.123 0.025 0.287-0.003 0.394 0.077-0.152 0.16-0.436-0.010-0.535 0.214-0.277-0.033-0.553-0.073-0.829-0.115-0.552-0.084-1.102-0.175-1.658-0.23-0.308-0.031-0.411-0.001-0.402-0.337 0.005-0.18 0.212-0.266 0.352-0.385 0.101-0.086 0.431-0.189 0.4-0.313-0.061-0.244-0.031-0.238 0.161-0.435 0.353-0.363 0.654-0.773 0.98-1.16 0.131-0.155 0.303-0.448 0.514-0.448 0.218 0 0.444-0.169 0.64-0.262 0.243-0.116 0.488-0.231 0.731-0.347 0.156-0.075 0.369-0.237 0.552-0.214 0.25 0.031 0.092-0.019 0.121-0.148 0.016-0.074 0.444-0.253 0.523-0.312 0.302-0.226 0.764-0.377 1.123-0.535 0.198-0.087 0.406-0.148 0.588-0.267 0.101-0.025 0.205 0.245 0.264-0.003 0.069-0.291 0.535-0.278 0.794-0.417 0.139-0.074 0.403-0.108 0.499-0.226 0.072-0.088 0.32-0.075 0.443-0.145 0.251-0.142 0.774-0.397 1.054-0.215 0.137 0.089 0.237 0.224 0.382 0.304 0.141 0.077 0.167 0.020 0.254 0.168 0.013 0.099 0.068 0.14 0.166 0.123 0.168 0.055 0.359 0.129 0.385 0.278 0.030 0.168 0.117 0.362 0.014 0.522-0.157 0.242-0.075 1.024-0.565 1.003 0.161 0.197-0.075 0.346-0.106 0.535zM10.91 28.185c-0.094 0.138-0.204 0.196-0.374 0.16-0.134 0.018 0.054 0.209-0.141 0.168-0.073-0.015-0.096-0.075-0.18-0.061 0.003-0.292 0.397-0.129 0.385-0.298-0.010-0.155-0.25-0.108-0.225-0.29 0.374-0.007 0.677 0.264 1.001 0.431 0.127 0.066 0.088 0.124 0.264 0.111 0.189-0.014 0.311-0.154 0.396 0.068 0.17 0.443-0.313 0.103-0.324 0.299-0.239-0.095-0.201-0.399-0.535-0.321v-0.214c-0.055-0.021-0.277 0.060-0.267-0.053zM8.878 28.559c-0.096-0.041-0.118 0.072-0.186 0.098-0.102 0.040 0.133-0.208 0.132-0.205 0.192-0.022 0.247 0.111 0.374 0.214-0.005-0.001 0.372-0.064 0.262 0.048-0.043 0.043-0.24-0.060-0.209 0.059 0.013 0.216 0.289 0.164 0.374 0.321-0.333 0.251-0.384-0.43-0.695-0.214 0.005-0.095 0.022-0.243-0.053-0.321zM6.204 28.078c0.114-0.026 0.417 0.083 0.481-0.054 0.255-0.012 0.174 0.326 0.525 0.268 0.17-0.028 0.178-0.174 0.345-0.175 0.12-0.001 0.21 0.053 0.296 0.132 0.149 0.136 0.479-0.050 0.486-0.037 0.051 0.086-0.024 0.202 0.005 0.294 0.040 0.121 0.204 0.125 0.214 0.267 0.174-0.091 0.132 0.056 0.267 0.107-0.117 0.235-0.508 0.052-0.535-0.16-0.157 0.072-0.278 0.135-0.374-0.053-0.119-0.030-0.066 0.102-0.16 0.107-0.136-0.017-0.266-0.064-0.394-0.11-0.206-0.075-1.165-0.275-1.157-0.586zM11.203 19.29c-0.154-0.085 0.014-0.143 0.089-0.243 0.089-0.118 0.007-0.13 0.147-0.222 0.092-0.061 0.168-0.143 0.236-0.229 0.114-0.143 0.215-0.302 0.367-0.408 0.227-0.158 0.64-1.067 1.005-0.768 0.172 0.141 0.578 0.288 0.582 0.497 0.003 0.138 0.082 0.229 0.199 0.292 0.122 0.065 0.281 0.108 0.345 0.243-0.098 0.233-0.313 0.271-0.53 0.336-0.465 0.139-0.926 0.39-1.383 0.564-0.12 0.046-0.234 0.106-0.358 0.139-0.118 0.031-0.060 0.105-0.135 0.138-0.166 0.073-0.339 0.11-0.502 0.194-0.197 0.101-0.403 0.239-0.621 0.287-0.013 0.003-0.375 0.019-0.354 0.032-0.041-0.026 0.662-0.687 0.675-0.728 0.083-0.006 0.13 0.064 0.214 0.053 0.014-0.055 0.106-0.133 0.024-0.178zM15.91 17.961c-0.323 0.114-0.642 0.256-0.989 0.276 0-0.339-0.178-0.169-0.428-0.321-0.071-0.127-0.141-0.256-0.229-0.373-0.124-0.165-0.149-0.048-0.3-0.14-0.082-0.050-0.137-0.134-0.22-0.183-0.114-0.067-0.192-0.020-0.294-0.127-0.197-0.208-0.234-0.537 0.137-0.501 0.587 0.057 1.144 0.239 1.699 0.429 0.195 0.067 1.015 0.209 1.025 0.467 0.202-0.024 0.306 0.103 0.481 0.16-0.22 0.22-0.604 0.214-0.883 0.312zM15.991 19.146c0.152 0.097 0.215 0.136 0.050 0.196-0.016 0.006-0.034 0.012-0.055 0.018-0.136 0.042-0.277 0.078-0.42 0.078-0.198-0.001-0.319-0.1-0.381-0.246-0.026-0.062-0.042-0.133-0.048-0.208-0.001-0.017-0.002-0.034-0.002-0.052 0.070 0.023 0.123 0.005 0.16-0.053 0.046 0.011 0.091 0.023 0.137 0.036 0.010 0.003 0.021 0.006 0.031 0.009 0.037 0.011 0.075 0.022 0.112 0.034 0.007 0.002 0.015 0.004 0.022 0.007 0.004 0.001 0.008 0.003 0.012 0.004 0.018 0.006 0.036 0.013 0.054 0.019s0.035 0.013 0.052 0.020c0.096 0.038 0.188 0.083 0.275 0.139zM10.432 20.846c0.19-0.085 0.346-0.23 0.541-0.305 0.117-0.045 0.24-0.063 0.365-0.058 0.050-0.11 0.154-0.174 0.259-0.222 0.088-0.041 0.218-0.13 0.321-0.105 0.072 0.017 0.095 0.097 0.168 0.113 0.111-0.32 0.472-0.413 0.758-0.511 0.236-0.081 0.277-0.068 0.472 0.083 0.114 0.009 0.033-0.212 0.053-0.267 0.196-0.055 0.815-0.426 0.982-0.281 0.096 0.084 0.117 0.235 0.143 0.351 0.048 0.222 0.046 0.2-0.164 0.302-0.292 0.142-0.656 0.091-0.886 0.318-0.2 0.197-0.644 0.083-0.83 0.33-0.101 0.134-0.434 0.074-0.535 0.213-0.077 0.106-0.253 0.097-0.37 0.125s-0.175 0.158-0.291 0.139c-0.136-0.023-0.131 0.126-0.268 0.106-0.152-0.022-0.325 0.139-0.45 0.208-0.128 0.071-0.316 0.165-0.463 0.089-0.069-0.036-0.149-0.118-0.237-0.081 0.020-0.147 0.12-0.247 0.18-0.377 0.068-0.149 0.102-0.104 0.25-0.17zM16.085 19.979c-0.076-0.047-0.136-0.113-0.148-0.191 0.016-0.002 0.034-0.006 0.053-0.010 0.040-0.009 0.084-0.023 0.13-0.038 0.263-0.084 0.582-0.206 0.394 0.214-0.005 0.010-0.011 0.019-0.017 0.028-0.077 0.102-0.274 0.083-0.413-0.003zM16.525 18.906c-0.092-0.021-0.205-0.040-0.294-0.090-0.004-0.002-0.007-0.005-0.011-0.007-0.011-0.007-0.022-0.014-0.032-0.021-0.015-0.011-0.028-0.023-0.040-0.037-0.001-0.002-0.003-0.003-0.004-0.005-0.005-0.006-0.010-0.012-0.014-0.019-0.003-0.005-0.006-0.009-0.009-0.014s-0.006-0.010-0.008-0.015-0.010-0.022-0.014-0.034c0.296-0.037 0.552-0.209 0.856-0.214-0.036 0.142-0.117 0.335-0.243 0.419-0.052 0.036-0.114 0.052-0.184 0.037zM16.543 17.066c-0.102-0.194-0.302-0.15-0.498-0.166-0.022-0.109-0.148-0.122-0.23-0.162-0.048-0.020-0.078-0.055-0.091-0.106-0.091 0.005-0.182-0-0.273-0.016-0.152-0.027-0.292-0.088-0.434-0.143-0.173-0.068-0.454-0.049-0.543-0.213-0.009-0.017-0.186-0.352-0.239-0.206-0.091 0.25-0.143 0.095-0.384 0.098 0.073-0.27 0.394-0.312 0.42-0.543 0.017-0.147 0.176-0.184 0.222-0.313 0.225 0.014 0.433 0.092 0.647 0.155 0.28 0.082 0.322 0.107 0.476 0.166 0.115 0.084 0.249 0.138 0.381 0.189 0.253 0.098 0.555 0.193 0.688 0.452 0.094-0.149 0.639 0.253 0.749 0.321 0.228 0.142 0.704 0.307 0.519 0.627-0.148 0.255-0.471 0.222-0.713 0.149-0.137-0.041-0.639-0.178-0.698-0.289zM17.306 23.9c0.052-0.158 0.128-0.1 0.289-0.1 0.069-0.061 0.136-0.126 0.184-0.205 0.056-0.091 0.084-0.195 0.088-0.301 0.007-0.186 0.055-0.17 0.164-0.314 0.152-0.2 0.25-0.436 0.419-0.624 0.306 0.152 0.033 1.269-0.179 1.447-0.377 0.316-0.604 0.68-1.158 0.64-0.013-0.218 0.129-0.349 0.192-0.541zM14.421 31.593c-2.823 0-5.425-0.966-7.492-2.585 0.307 0.105 0.618 0.215 0.558 0.193 0.965 0.353 2.014 0.659 3 0.755 1.009 0.098 1.991 0.336 2.995 0.453 0.234 0.027 1.319 0.125 1.342 0.344 0.013 0.13 0.707 0.233 0.874 0.227 0.339-0.012 0.377 0.339 0.757 0.118 0.254-0.147 0.707 0.38 0.873 0.028l0.211 0.061c-0.995 0.264-2.040 0.405-3.117 0.405zM21.324 29.44c-0.066 0.017-0.137 0.025-0.207 0.046-0.384 0.111-0.464-0.039-0.612-0.352-0.202-0.426-0.393 0.029-0.662 0.067-0.030-0.414 0.473-0.359 0.749-0.374-0.059 0.289 0.255 0.2 0.415 0.117 0.088-0.046 0.124-0.127 0.119-0.224 0.059 0 0.42 0.032 0.235-0.118-0.055-0.045-0.095-0.066-0.075-0.15h0.267c0.042-0.069 0.102-0.113 0.179-0.132 0.142-0.026 0.271 0.088 0.356 0.186 0.141 0.033 0.236-0.075 0.374-0.053l-0.856 0.787c-0.093 0.068-0.187 0.136-0.282 0.202zM22.675 28.357l0.127-0.146c-0.272 0.125-0.866-0.101-1.143-0.080-0.152 0.012-0.682-0.184-0.618-0.261 0.253-0.302-0.161-0.050-0.282-0.051-0.25-0.003-0.595-0.121-0.732-0.334-0.173-0.271-0.265 0.095-0.436-0.026-0.107-0.076-0.136 0.072-0.205 0.121-0.099 0.070-0.139-0.063-0.271 0.081-0.228 0.251-0.315 0.093-0.347-0.169-0.053-0.422-0.48 0.142-0.559-0.123-0.051-0.171-0.041-0.411-0.294-0.362 0.117-0.331-0.237-0.481-0.198-0.215 0.026 0.177-0.224 0.322-0.39 0.375 0.008-0.137-0.138-0.432-0.233-0.166-0.044 0.123 0.062 0.258 0.050 0.385-0.016 0.169-0.171 0.199-0.236 0.044-0.048-0.114-0.033-0.244-0.079-0.359-0.071-0.181-0.229-0.094-0.346-0.010-0.167 0.119-0.070 0.373-0.205 0.414-0.217 0.067-0.212 0.144-0.149 0.354 0.041 0.136-0.174 0.213-0.301 0.194 0.026-0.211-0.214-0.225 0.001-0.395 0.231-0.182-0.172-0.267-0.269-0.301-0.169 0.081-0.078 0.368-0.267 0.428 0.078 0.218 0.223-0.035 0.374 0-0.149 0.137 0.048 0.326-0.205 0.278-0.136-0.026-0.265 0.059-0.4 0.032-0.256-0.052 0.066-0.335 0.075-0.459 0.016-0.204-0.32-0.658-0.535-0.567-0.184 0.077-0.37 0.553-0.059 0.503-0.109 0.164-0.389 0.133-0.542 0.247-0.089 0.067-0.237 0.245-0.367 0.18 0.109-0.232 0.106-0.523-0.107-0.695-0.206 0.050-0.047 0.297-0.053 0.428-0.123 0.011-0.263-0.186-0.382-0.084-0.083 0.071-0.024 0.238-0.131 0.289-0.207 0.098-0.089-0.302-0.075-0.365 0.3 0.016 0.321-0.039 0.321-0.321-0.123-0.019-0.546-0.677-0.506-0.194 0.044 0.528-0.654 0.306-0.991 0.247 0.298-0.298 0.711-0.438 1.064-0.655 0.187-0.115 0.353-0.223 0.409-0.439 0.051-0.193 0.148-0.383 0.345-0.457 0.137 0.143-0.088 0.364-0.117 0.507-0.037 0.184-0.185 0.318-0.204 0.509-0.45-0.393-0.018 0.448-0.053 0.053 0.133 0.009 0.112 0.183 0.107 0.267 0.078 0.007 0.114-0.029 0.107-0.107 0.298 0.113 0.449 0.408 0.701 0.582 0.367 0.254 0.060-0.288 0.047-0.368-0.124 0.070-0.383-0.031-0.292-0.192 0.083-0.148 0.295-0.168 0.345-0.343 0.159 0.093 0.037 0.208 0.027 0.335-0.009 0.117 0.168 0.118 0.187 0.012 0.014-0.080-0.060-0.18-0.007-0.254 0.065-0.090 0.079-0.215-0.1-0.2 0.073-0.165 0.166-0.128 0.321-0.107-0.269-0.209 0.059-0.599 0.053-0.856 0.211-0.248 0.632-0.072 0.909-0.16 0.286-0.091 0.636-0.129 0.907-0.26 0.178-0.086 0.322-0.349 0.537-0.382 0 0.347 0.149 0.043 0.249-0.061s0.359-0.074 0.497-0.148c0.282-0.151 0.435-0.445 0.676-0.643 0.274-0.226 0.35-0.928 0.359-1.273 0.005-0.177 0.159-0.332-0.005-0.452-0.168-0.122 0.040-0.138 0.028-0.269-0.019-0.21 0.16-0.2 0.228-0.362 0.041-0.096-0.022-0.189 0.035-0.29 0.034-0.054 0.064-0.11 0.091-0.168 0.162-0.395-0.186-0.792-0.554-0.879-0.032-0.197 0.043-0.335 0.214-0.428 0.047-0.201-0.139-0.27 0.117-0.351 0.202-0.064 0.227 0.079 0.4-0.094 0.092-0.091 0.379-0.077 0.507-0.114 0.552-0.16 0.164-0.481-0.146-0.71-0.364-0.269-0.259-0.839-0.21-1.257 0.026-0.22 0.116-0.378 0.077-0.571-0.034-0.17 0.068-0.432 0.080-0.608 0.029-0.428 0.012-0.942 0.244-1.321-0.143-0.21 0.056-0.483 0.084-0.702 0.024-0.19-0.031-0.615 0.13-0.745 0.144-0.116 0.066-0.369 0.108-0.532 0.034-0.131 0.113-0.058 0.127-0.244 0.004-0.090 0.008-0.18 0.012-0.27 0.016-0.181 0.153-0.308 0.187-0.506 0.038-0.226 0.113-0.435 0.173-0.655 0.058-0.212 0.185-0.355 0.236-0.554 0.052-0.203 0.092-0.411 0.175-0.605 0 0 0.102-0.258 0.212-0.537 3.173 2.199 5.256 5.866 5.256 10.010 0.002 3.529-1.508 6.711-3.916 8.937z">
			</path>
		</symbol>
	</defs>
</svg>
